# xmcd
#
# Track frame offsets: 
#        150
#        19275
#        41487
#        58177
#        79252
#        101480
#        121387
#        140962
#        156515
#        177182
#        190667
#        207610
#        228660
#
# Disc length: 3312 seconds
#
# Revision: 0
# Processed by: cddbd v1.5.2PL0 Copyright (c) Steve Scherf et al.
# Submitted via: ExactAudioCopy v0.99pb5
#
DISCID=c10cee0d
DTITLE=Abba - Super Trouper
DYEAR=1980
DGENRE=Classical
TTITLE0=Super Trouper
TTITLE1=The Winner Takes It All
TTITLE2=On and On and On
TTITLE3=Andante, Andante
TTITLE4=Me And I
TTITLE5=Happy New Year
TTITLE6=Our Last Summer
TTITLE7=The Piper
TTITLE8=Lay All Your Love on Me
TTITLE9=The Way Old Friends Do
TTITLE10=Elaine
TTITLE11=Andante, Andante (Spanish Version)
TTITLE12=Felicidad
EXTD=
EXTT0=
EXTT1=
EXTT2=
EXTT3=
EXTT4=
EXTT5=
EXTT6=
EXTT7=
EXTT8=
EXTT9=
EXTT10=
EXTT11=
EXTT12=
PLAYORDER=
